<?xml version="1.0" encoding="UTF-8" standalone="no"?>
<svg
   xmlns:dc="http://purl.org/dc/elements/1.1/"
   xmlns:cc="http://creativecommons.org/ns#"
   xmlns:rdf="http://www.w3.org/1999/02/22-rdf-syntax-ns#"
   xmlns:svg="http://www.w3.org/2000/svg"
   xmlns="http://www.w3.org/2000/svg"
   xmlns:sodipodi="http://sodipodi.sourceforge.net/DTD/sodipodi-0.dtd"
   xmlns:inkscape="http://www.inkscape.org/namespaces/inkscape"
   version="1.1"
   x="0px"
   y="0px"
   viewBox="0 0 100 125"
   enable-background="new 0 0 100 100"
   xml:space="preserve"
   id="svg8"
   sodipodi:docname="noun_add_760922.svg"
   inkscape:version="0.92.1 r15371"><metadata
     id="metadata14"><rdf:RDF><cc:Work
         rdf:about=""><dc:format>image/svg+xml</dc:format><dc:type
           rdf:resource="http://purl.org/dc/dcmitype/StillImage" /></cc:Work></rdf:RDF></metadata><defs
     id="defs12" /><sodipodi:namedview
     pagecolor="#ffffff"
     bordercolor="#666666"
     borderopacity="1"
     objecttolerance="10"
     gridtolerance="10"
     guidetolerance="10"
     inkscape:pageopacity="0"
     inkscape:pageshadow="2"
     inkscape:window-width="1366"
     inkscape:window-height="715"
     id="namedview10"
     showgrid="false"
     inkscape:zoom="2.6700352"
     inkscape:cx="29.928505"
     inkscape:cy="98.457319"
     inkscape:window-x="-8"
     inkscape:window-y="-8"
     inkscape:window-maximized="1"
     inkscape:current-layer="svg8" /><path
     d="m 84.943054,45.539495 c -1.52,-8.159 -7.926,-14.398 -15.931,-15.919 -6.084,-1.198 -12.25,-1.759 -18.253,-1.759 -6.165,0 -12.33,0.561 -18.413,1.759 -8.166,1.521 -14.33,7.84 -15.852,15.839 -2.321,12.158 -2.321,24.558 0,36.636 1.521,8.24 7.845,14.399 15.852,15.92 6.083,1.278 12.248,1.839 18.413,1.839 6.164,0 12.247,-0.561 18.332,-1.76 8.167,-1.6 14.332,-7.839 15.852,-15.918 2.402,-12.16 2.402,-24.559 0,-36.637 z m -18.538,19.818 h -14.156 v 14.156 c 0,0.828 -0.672,1.5 -1.5,1.5 -0.828,0 -1.5,-0.672 -1.5,-1.5 v -14.156 h -14.156 c -0.828,0 -1.5,-0.672 -1.5,-1.5 0,-0.828 0.672,-1.5 1.5,-1.5 h 14.156 v -14.156 c 0,-0.828 0.672,-1.5 1.5,-1.5 0.828,0 1.5,0.672 1.5,1.5 v 14.156 h 14.156 c 0.828,0 1.5,0.672 1.5,1.5 0,0.828 -0.672,1.5 -1.5,1.5 z"
     id="path2"
     style="fill:#1a5fa0;fill-opacity:1;stroke:none"
     inkscape:connector-curvature="0" /><path
     id="path4491"
     d="m 66.405054,65.357495 h -14.156 v 14.156 c 0,0.828 -0.672,1.5 -1.5,1.5 -0.828,0 -1.5,-0.672 -1.5,-1.5 v -14.156 h -14.156 c -0.828,0 -1.5,-0.672 -1.5,-1.5 0,-0.828 0.672,-1.5 1.5,-1.5 h 14.156 v -14.156 c 0,-0.828 0.672,-1.5 1.5,-1.5 0.828,0 1.5,0.672 1.5,1.5 v 14.156 h 14.156 c 0.828,0 1.5,0.672 1.5,1.5 0,0.828 -0.672,1.5 -1.5,1.5 z"
     inkscape:connector-curvature="0"
     sodipodi:nodetypes="scssscssscssscsss"
     style="stroke:#ffffff;stroke-width:4;stroke-opacity:1" /></svg>