<?xml version="1.0" encoding="UTF-8" standalone="no"?>
<svg
   xmlns:dc="http://purl.org/dc/elements/1.1/"
   xmlns:cc="http://creativecommons.org/ns#"
   xmlns:rdf="http://www.w3.org/1999/02/22-rdf-syntax-ns#"
   xmlns:svg="http://www.w3.org/2000/svg"
   xmlns="http://www.w3.org/2000/svg"
   xmlns:sodipodi="http://sodipodi.sourceforge.net/DTD/sodipodi-0.dtd"
   xmlns:inkscape="http://www.inkscape.org/namespaces/inkscape"
   version="1.1"
   x="0px"
   y="0px"
   viewBox="0 0 512 640"
   enable-background="new 0 0 512 512"
   xml:space="preserve"
   id="svg12"
   sodipodi:docname="noun_call_1945694.svg"
   inkscape:version="0.92.1 r15371"><metadata
     id="metadata18"><rdf:RDF><cc:Work
         rdf:about=""><dc:format>image/svg+xml</dc:format><dc:type
           rdf:resource="http://purl.org/dc/dcmitype/StillImage" /><dc:title /></cc:Work></rdf:RDF></metadata><defs
     id="defs16" /><sodipodi:namedview
     pagecolor="#ffffff"
     bordercolor="#666666"
     borderopacity="1"
     objecttolerance="10"
     gridtolerance="10"
     guidetolerance="10"
     inkscape:pageopacity="0"
     inkscape:pageshadow="2"
     inkscape:window-width="1366"
     inkscape:window-height="715"
     id="namedview14"
     showgrid="false"
     inkscape:zoom="1.0429825"
     inkscape:cx="245.31249"
     inkscape:cy="377.63455"
     inkscape:window-x="-8"
     inkscape:window-y="-8"
     inkscape:window-maximized="1"
     inkscape:current-layer="svg12" /><g
     id="g6"><g
       id="g4"><path
         d="m 378.342,482.888 c -14.533,0 -44.952,-2.411 -85.389,-18.559 C 243.606,444.623 194.896,410.944 148.179,364.229 55.008,271.059 20.79,201.676 30.072,124.746 c 1.137,-10.065 3.619,-20.076 7.578,-30.513 0.017,-0.043 0.033,-0.086 0.05,-0.129 3.812,-9.722 8.721,-18.749 14.619,-26.891 0.595,-1.887 1.636,-3.625 3.058,-5.054 L 74.083,43.347 c 9.186,-9.188 21.287,-14.235 34.1,-14.235 12.315,0 23.818,4.72 32.391,13.291 l 66.372,66.384 c 18.067,18.092 17.665,47.908 -0.893,66.47 l -26.792,26.784 c 11.283,20.301 26.783,47.594 55.201,76.008 28.448,28.468 55.731,43.922 76.013,55.17 l 26.768,-26.762 c 9.149,-9.152 21.245,-14.194 34.057,-14.194 12.306,0 23.81,4.709 32.395,13.26 l 66.385,66.394 c 18.048,18.104 17.648,47.925 -0.877,66.487 -0.033,0.034 -0.067,0.067 -0.102,0.101 l -18.947,18.556 c -1.301,1.274 -2.814,2.209 -4.426,2.801 -8.266,6.044 -17.422,11.048 -27.27,14.896 -10.125,3.932 -20.164,6.453 -30.715,7.716 -0.057,0.007 -0.113,0.013 -0.17,0.019 -1.131,0.117 -4.293,0.395 -9.231,0.395 z"
         id="path2"
         inkscape:connector-curvature="0"
         sodipodi:nodetypes="sccccccccscccccccscccccccccs" style="stroke:#ffffff;fill:#ffffff"/></g></g></svg>