<?xml version="1.0" encoding="UTF-8" standalone="no"?>
<svg
   xmlns:dc="http://purl.org/dc/elements/1.1/"
   xmlns:cc="http://creativecommons.org/ns#"
   xmlns:rdf="http://www.w3.org/1999/02/22-rdf-syntax-ns#"
   xmlns:svg="http://www.w3.org/2000/svg"
   xmlns="http://www.w3.org/2000/svg"
   xmlns:sodipodi="http://sodipodi.sourceforge.net/DTD/sodipodi-0.dtd"
   xmlns:inkscape="http://www.inkscape.org/namespaces/inkscape"
   data-name="Layer 1"
   viewBox="0 0 1024 1280"
   x="0px"
   y="0px"
   version="1.1"
   id="svg10"
   sodipodi:docname="noun_User_1948511.svg"
   inkscape:version="0.92.1 r15371">
  <metadata
     id="metadata16">
    <rdf:RDF>
      <cc:Work
         rdf:about="">
        <dc:format>image/svg+xml</dc:format>
        <dc:type
           rdf:resource="http://purl.org/dc/dcmitype/StillImage" />
        <dc:title>icon</dc:title>
      </cc:Work>
    </rdf:RDF>
  </metadata>
  <defs
     id="defs14" />
  <sodipodi:namedview
     pagecolor="#ffffff"
     bordercolor="#666666"
     borderopacity="1"
     objecttolerance="10"
     gridtolerance="10"
     guidetolerance="10"
     inkscape:pageopacity="0"
     inkscape:pageshadow="2"
     inkscape:window-width="640"
     inkscape:window-height="480"
     id="namedview12"
     showgrid="false"
     inkscape:zoom="0.13037281"
     inkscape:cx="533.11787"
     inkscape:cy="790.521"
     inkscape:window-x="0"
     inkscape:window-y="0"
     inkscape:window-maximized="0"
     inkscape:current-layer="svg10" />
  <title
     id="title2">icon</title>
  <path
     fill="#000000"
     d="M650.9 558.2c77.2-47 128.8-131.9 128.8-228.8 0-147.8-119.8-267.6-267.4-267.6-147.8 0-267.6 119.8-267.6 267.6 0 96.9 51.6 181.6 128.8 228.8-148.9 56.1-255 200.2-255 368.5 0 17.3 14.2 31.4 31.4 31.4 17.5 0 31.4-14.1 31.4-31.4 0-176.7 139.1-321.5 313.7-330.5h0.3c5.7-0.3 11.3-0.5 17-0.5 5.7 0 11.3 0.2 17 0.5h0.3c174.4 9 313.5 153.8 313.5 330.5 0 17.3 14 31.4 31.4 31.4 17.3 0 31.4-14.1 31.4-31.4 0-168.3-106.1-312.3-255-368.5zM512.2 534c-5.3 0-10.7-0.2-16-0.8-105.5-8-188.7-96.4-188.7-203.8 0-112.9 91.8-204.7 204.7-204.7 112.7 0 204.6 91.8 204.6 204.7 0 107.4-83.2 195.7-188.5 203.8-5.4 0.7-10.8 0.8-16.1 0.8z"
     id="path4" />
</svg>
