<?xml version="1.0" encoding="UTF-8" standalone="no"?>
<svg
   xmlns:dc="http://purl.org/dc/elements/1.1/"
   xmlns:cc="http://creativecommons.org/ns#"
   xmlns:rdf="http://www.w3.org/1999/02/22-rdf-syntax-ns#"
   xmlns:svg="http://www.w3.org/2000/svg"
   xmlns="http://www.w3.org/2000/svg"
   xmlns:sodipodi="http://sodipodi.sourceforge.net/DTD/sodipodi-0.dtd"
   xmlns:inkscape="http://www.inkscape.org/namespaces/inkscape"
   version="1.1"
   x="0px"
   y="0px"
   viewBox="0 0 512 640"
   enable-background="new 0 0 512 512"
   xml:space="preserve"
   id="svg12"
   sodipodi:docname="noun_call_1945694.svg"
   inkscape:version="0.92.1 r15371"><metadata
     id="metadata18"><rdf:RDF><cc:Work
         rdf:about=""><dc:format>image/svg+xml</dc:format><dc:type
           rdf:resource="http://purl.org/dc/dcmitype/StillImage" /><dc:title></dc:title></cc:Work></rdf:RDF></metadata><defs
     id="defs16" /><sodipodi:namedview
     pagecolor="#ffffff"
     bordercolor="#666666"
     borderopacity="1"
     objecttolerance="10"
     gridtolerance="10"
     guidetolerance="10"
     inkscape:pageopacity="0"
     inkscape:pageshadow="2"
     inkscape:window-width="1366"
     inkscape:window-height="715"
     id="namedview14"
     showgrid="false"
     inkscape:zoom="0.36875"
     inkscape:cx="256"
     inkscape:cy="320"
     inkscape:window-x="-8"
     inkscape:window-y="-8"
     inkscape:window-maximized="1"
     inkscape:current-layer="svg12" /><g
     id="g6"><g
       id="g4"><path
         d="M378.342,482.888c-14.533,0-44.952-2.411-85.389-18.559c-49.347-19.706-98.057-53.385-144.774-100.1    C55.008,271.059,20.79,201.676,30.072,124.746c1.137-10.065,3.619-20.076,7.578-30.513c0.017-0.043,0.033-0.086,0.05-0.129    c3.812-9.722,8.721-18.749,14.619-26.891c0.595-1.887,1.636-3.625,3.058-5.054l18.706-18.812    c9.186-9.188,21.287-14.235,34.1-14.235c12.315,0,23.818,4.72,32.391,13.291l66.372,66.384    c18.067,18.092,17.665,47.908-0.893,66.47l-26.792,26.784c11.283,20.301,26.783,47.594,55.201,76.008    c28.448,28.468,55.731,43.922,76.013,55.17l26.768-26.762c9.149-9.152,21.245-14.194,34.057-14.194    c12.306,0,23.81,4.709,32.395,13.26l66.385,66.394c18.048,18.104,17.648,47.925-0.877,66.487    c-0.033,0.034-0.067,0.067-0.102,0.101l-18.947,18.556c-1.301,1.274-2.814,2.209-4.426,2.801    c-8.266,6.044-17.422,11.048-27.27,14.896c-10.125,3.932-20.164,6.453-30.715,7.716c-0.057,0.007-0.113,0.013-0.17,0.019    C386.442,482.61,383.28,482.888,378.342,482.888z M61.001,103.164c-3.195,8.436-5.189,16.445-6.098,24.482    c-8.258,68.449,23.891,131.843,110.953,218.906C269.17,449.859,354.614,457.888,378.342,457.888c3.753,0,5.961-0.195,6.523-0.251    c8.406-1.014,16.428-3.035,24.518-6.176c8.629-3.372,16.905-8.057,23.91-13.539c0.62-0.484,1.273-0.903,1.951-1.254l16.309-15.972    c8.768-8.833,9.146-22.778,0.834-31.117l-66.354-66.362c-3.849-3.833-9.087-5.955-14.733-5.955c-6.132,0-11.949,2.44-16.378,6.872    l-33.439,33.432c-3.938,3.935-10.001,4.793-14.875,2.105c-2.138-1.179-4.35-2.409-6.677-3.714    c-21.678-12.012-51.445-28.508-83.147-60.233c-31.688-31.683-48.234-61.478-60.315-83.233l-0.646-1.166    c-1.002-1.812-1.972-3.566-2.932-5.244c-2.801-4.898-1.975-11.065,2.019-15.052l33.46-33.442    c8.824-8.826,9.222-22.788,0.893-31.128L122.896,60.08c-3.849-3.848-9.074-5.968-14.713-5.968c-6.133,0-11.956,2.446-16.396,6.887    L76.059,76.815c-0.392,0.829-0.881,1.626-1.468,2.375C69.04,86.273,64.468,94.339,61.001,103.164z"
         id="path2" /></g></g></svg>