<?xml version="1.0" encoding="UTF-8" standalone="no"?>
<svg
   xmlns:dc="http://purl.org/dc/elements/1.1/"
   xmlns:cc="http://creativecommons.org/ns#"
   xmlns:rdf="http://www.w3.org/1999/02/22-rdf-syntax-ns#"
   xmlns:svg="http://www.w3.org/2000/svg"
   xmlns="http://www.w3.org/2000/svg"
   xmlns:sodipodi="http://sodipodi.sourceforge.net/DTD/sodipodi-0.dtd"
   xmlns:inkscape="http://www.inkscape.org/namespaces/inkscape"
   version="1.1"
   x="0px"
   y="0px"
   viewBox="0 0 1024 1280"
   style="enable-background:new 0 0 1024 1024;"
   xml:space="preserve"
   id="svg20"
   sodipodi:docname="noun_back_1831686.svg"
   inkscape:version="0.92.1 r15371"><metadata
     id="metadata26"><rdf:RDF><cc:Work
         rdf:about=""><dc:format>image/svg+xml</dc:format><dc:type
           rdf:resource="http://purl.org/dc/dcmitype/StillImage" /></cc:Work></rdf:RDF></metadata><defs
     id="defs24" /><sodipodi:namedview
     pagecolor="#ffffff"
     bordercolor="#666666"
     borderopacity="1"
     objecttolerance="10"
     gridtolerance="10"
     guidetolerance="10"
     inkscape:pageopacity="0"
     inkscape:pageshadow="2"
     inkscape:window-width="640"
     inkscape:window-height="480"
     id="namedview22"
     showgrid="false"
     inkscape:zoom="0.184375"
     inkscape:cx="512"
     inkscape:cy="640"
     inkscape:window-x="0"
     inkscape:window-y="0"
     inkscape:window-maximized="0"
     inkscape:current-layer="svg20" /><g
     id="g14"><g
       id="g6"><g
         id="g4"><path
           d="M541.9,74.3c0.7-16.2-14.3-30-30-30c-24.9,0.1-49.7,2.3-74.4,6.1c-47.3,7.2-93.1,22.5-135.9,43.8     c-41.6,20.7-80.1,48.2-113.6,80.3s-62.5,69.5-85,110c-22.9,41.3-39.9,86.3-49.3,132.6c-9.8,48.2-12.5,97.8-6.8,146.7     c5.9,50.1,19,97.9,39.8,143.9c19.2,42.5,45.5,81.7,76.4,116.5c30.7,34.6,67.2,64.7,106.8,88.7c40.2,24.4,84.6,42.8,130.3,53.9     c47.5,11.5,97.2,15.9,146,12.1c47.9-3.7,95.3-14.1,139.8-32.4c45.6-18.7,87.2-43.5,125.3-74.8c35.9-29.5,66.9-64.8,92.5-103.6     c25.9-39.3,45.8-83.2,58.6-128.5c13.2-46.9,19.1-96.3,17.2-145c-1.9-48.1-10.9-96.4-27.7-141.8c-16.2-44-38.3-85.6-66.9-122.8     c-29.7-38.8-64.3-72.4-104.2-100.8c-38.1-27.2-80.9-48.1-125.4-62.6c-46.1-14.9-95-22.3-143.5-22.4c-16.8,0-29.3,13.8-30,30     s14.3,30,30,30c19.5,0,39,1.3,58.3,3.8c-2.7-0.4-5.3-0.7-8-1.1c38.4,5.1,75.9,15.3,111.6,30.3c-2.4-1-4.8-2-7.2-3     c22.7,9.6,44.6,21,65.4,34.3c9.2,5.9,18.2,12.1,27,18.7c1.4,1.1,2.8,2.2,4.2,3.2c-7.9-6-3.6-2.9-1.9-1.5c2,1.6,4.1,3.2,6.1,4.9     c4.1,3.3,8.1,6.6,12,10.1c16.4,14.3,31.7,29.9,45.8,46.6c3.6,4.3,7.2,8.7,10.7,13.2c3.3,4.2-4.7-6.2-1.5-1.9     c0.8,1,1.6,2.1,2.4,3.1c1.6,2.1,3.2,4.2,4.7,6.3c6.4,8.9,12.5,18,18.2,27.3c11.5,18.8,21.5,38.4,30.1,58.7c-1-2.4-2-4.8-3-7.2     c15,35.7,25.1,73.2,30.3,111.6c-0.4-2.7-0.7-5.3-1.1-8c5.1,38.7,5.1,77.9,0,116.6c0.4-2.7,0.7-5.3,1.1-8     c-5.1,38.4-15.3,75.9-30.3,111.6c1-2.4,2-4.8,3-7.2c-9.6,22.7-21,44.6-34.3,65.4c-5.9,9.2-12.1,18.2-18.7,27     c-1.1,1.4-2.2,2.8-3.2,4.2c6-7.9,2.9-3.6,1.5-1.9c-1.6,2-3.2,4.1-4.9,6.1c-3.3,4.1-6.6,8.1-10.1,12     c-14.3,16.4-29.9,31.7-46.6,45.8c-4.3,3.6-8.7,7.2-13.2,10.7c-4.2,3.3,6.2-4.7,1.9-1.5c-1,0.8-2.1,1.6-3.1,2.4     c-2.1,1.6-4.2,3.2-6.3,4.7c-8.9,6.4-18,12.5-27.3,18.2c-18.8,11.5-38.4,21.5-58.7,30.1c2.4-1,4.8-2,7.2-3     c-35.7,15-73.2,25.1-111.6,30.3c2.7-0.4,5.3-0.7,8-1.1c-38.7,5.1-77.9,5.1-116.6,0c2.7,0.4,5.3,0.7,8,1.1     c-38.4-5.1-75.9-15.3-111.6-30.3c2.4,1,4.8,2,7.2,3c-22.7-9.6-44.6-21-65.4-34.3c-9.2-5.9-18.2-12.1-27-18.7     c-1.4-1.1-2.8-2.2-4.2-3.2c7.9,6,3.6,2.9,1.9,1.5c-2-1.6-4.1-3.2-6.1-4.9c-4.1-3.3-8.1-6.6-12-10.1     c-16.4-14.3-31.7-29.9-45.8-46.6c-3.6-4.3-7.2-8.7-10.7-13.2c-3.3-4.2,4.7,6.2,1.5,1.9c-0.8-1-1.6-2.1-2.4-3.1     c-1.6-2.1-3.2-4.2-4.7-6.3c-6.4-8.9-12.5-18-18.2-27.3c-11.5-18.8-21.5-38.4-30.1-58.7c1,2.4,2,4.8,3,7.2     c-15-35.7-25.1-73.2-30.3-111.6c0.4,2.7,0.7,5.3,1.1,8c-5.1-38.7-5.1-77.9,0-116.6c-0.4,2.7-0.7,5.3-1.1,8     c5.1-38.4,15.3-75.9,30.3-111.6c-1,2.4-2,4.8-3,7.2c9.6-22.7,21-44.6,34.3-65.4c5.9-9.2,12.1-18.2,18.7-27     c1.1-1.4,2.2-2.8,3.2-4.2c-6,7.9-2.9,3.6-1.5,1.9c1.6-2,3.2-4.1,4.9-6.1c3.3-4.1,6.6-8.1,10.1-12c14.3-16.4,29.9-31.7,46.6-45.8     c4.3-3.6,8.7-7.2,13.2-10.7c4.2-3.3-6.2,4.7-1.9,1.5c1-0.8,2.1-1.6,3.1-2.4c2.1-1.6,4.2-3.2,6.3-4.7c8.9-6.4,18-12.5,27.3-18.2     c18.8-11.5,38.4-21.5,58.7-30.1c-2.4,1-4.8,2-7.2,3c35.7-15,73.2-25.1,111.6-30.3c-2.7,0.4-5.3,0.7-8,1.1     c19.3-2.5,38.8-3.8,58.3-3.8C528.7,104.2,541.2,90.5,541.9,74.3z"
     style="stroke:#1a5fa0;fill:#1a5fa0"
           id="path2" /></g></g><g
       id="g12"><g
         id="g10"><path
           d="M595.7,337.2c11.9-11.8,11-30.4-0.1-42.6c-10.9-11.9-31.3-11.1-42.4,0c-0.4,0.4-0.9,0.9-1.3,1.3     c-25.8,25.3-51.1,51.1-76.7,76.7c-30.7,30.7-61.4,61.4-92.1,92.1c-2.8,2.8-5.7,5.6-8.5,8.5c-17.1,17.3-20.8,42.2-10.2,63.9     c5.4,11.1,17,20.5,25.7,29.2c32.6,32.6,65.3,65.3,97.9,97.9c21.7,21.7,43.5,43.5,65.2,65.2c11.8,11.9,30.4,11,42.4,0     c11.9-10.9,11.1-31.3,0-42.4c-7.6-7.6-15.2-15.2-22.8-22.8c-32.8-32.8-65.5-65.5-98.3-98.3c-14.1-14.1-28.1-28.1-42.2-42.2     c-4.1-4.1-8.2-8.2-12.3-12.3c-1-1-2-2-3-3c-0.2-0.2-0.4-0.4-0.6-0.6c-0.3-0.3-0.6-0.8-1-1.1c4.5,3.5,3.5,5.1,1.8,2     c-0.6-1-1-2-1.5-3.1c1,2.4,2,4.8,3,7.2c-0.6-1.7-1.1-3.5-1.4-5.3c0.4,2.7,0.7,5.3,1.1,8c-0.3-2.3-0.3-4.5,0-6.8     c-0.4,2.7-0.7,5.3-1.1,8c0.3-1.8,0.8-3.5,1.4-5.3c-1,2.4-2,4.8-3,7.2c0.6-1.5,1.4-2.8,2.2-4.3c1.7-3.1-5.4,5.8-1.5,2.2l0.1-0.1     c0.3-0.3,0.5-0.5,0.8-0.8c1.3-1.3,2.6-2.6,3.9-3.9c5.1-5.1,10.1-10.1,15.2-15.2c32.4-32.4,64.8-64.8,97.2-97.2     C554.3,378.6,575,357.9,595.7,337.2L595.7,337.2z"
     style="stroke:#1a5fa0;fill:#1a5fa0"
           id="path8" /></g></g></g></svg>