<svg xmlns="http://www.w3.org/2000/svg" xmlns:xlink="http://www.w3.org/1999/xlink" version="1.1" x="0px" y="0px" viewBox="1 -1 100 125" style="enable-background:new 1 -1 100 100;" xml:space="preserve"><g><path d="M80.9,80.7V22H88v-6H69.2v-2.8c0-5-4-9-9-9H41.8c-5,0-9,4-9,9v2.8H14v6h7.1v58.9c0,7.2,5.8,13,13,13h33.8   C75,93.7,80.9,87.9,80.9,80.7z M38.8,13.1c0-1.7,1.3-3,3-3h18.3c1.7,0,3,1.3,3,3v2.8H38.8V13.1z M41,77.5h-6V31.4h6V77.5z M54,77.5   h-6V31.4h6V77.5z M67,77.5h-6V31.4h6V77.5z" style="opacity:1;color:#c40404;fill:#c40404"/></g></svg>